<?xml version="1.0" encoding="UTF-8"?>
<!DOCTYPE svg PUBLIC "-//W3C//DTD SVG 1.1//EN" "http://www.w3.org/Graphics/SVG/1.1/DTD/svg11.dtd">
<svg xmlns="http://www.w3.org/2000/svg" version="1.1" width="512px" height="512px" style="shape-rendering:geometricPrecision; text-rendering:geometricPrecision; image-rendering:optimizeQuality; fill-rule:evenodd; clip-rule:evenodd" xmlns:xlink="http://www.w3.org/1999/xlink">
<g><path style="opacity:0.999" fill="#f0f0f0" d="M 232.5,-0.5 C 247.833,-0.5 263.167,-0.5 278.5,-0.5C 300.956,1.94469 322.956,6.94469 344.5,14.5C 344.5,175.167 344.5,335.833 344.5,496.5C 322.956,504.055 300.956,509.055 278.5,511.5C 263.167,511.5 247.833,511.5 232.5,511.5C 209.475,509.161 187.141,503.827 165.5,495.5C 166.833,335.5 166.833,175.5 165.5,15.5C 187.141,7.17278 209.475,1.83944 232.5,-0.5 Z"/></g>
<g><path style="opacity:1" fill="#0252b4" d="M 163.5,16.5 C 164.833,95.8305 165.5,175.497 165.5,255.5C 165.5,335.503 164.833,415.169 163.5,494.5C 104.961,472.137 60.461,433.47 30,378.5C 13.3053,347.029 3.1386,313.696 -0.5,278.5C -0.5,263.167 -0.5,247.833 -0.5,232.5C 10.3875,142.857 54.7208,75.3573 132.5,30C 142.398,24.3814 152.732,19.8814 163.5,16.5 Z"/></g>
<g><path style="opacity:1" fill="#0c58b6" d="M 163.5,16.5 C 163.842,15.6618 164.508,15.3284 165.5,15.5C 166.833,175.5 166.833,335.5 165.5,495.5C 164.508,495.672 163.842,495.338 163.5,494.5C 164.833,415.169 165.5,335.503 165.5,255.5C 165.5,175.497 164.833,95.8305 163.5,16.5 Z"/></g>
<g><path style="opacity:1" fill="#d90d2f" d="M 344.5,14.5 C 345.71,14.9321 346.71,15.5987 347.5,16.5C 346.167,95.8305 345.5,175.497 345.5,255.5C 345.5,335.503 346.167,415.169 347.5,494.5C 346.71,495.401 345.71,496.068 344.5,496.5C 344.5,335.833 344.5,175.167 344.5,14.5 Z"/></g>
<g><path style="opacity:1" fill="#d80227" d="M 347.5,16.5 C 406.039,38.8634 450.539,77.5301 481,132.5C 491.706,152.454 499.539,173.454 504.5,195.5C 504.294,198.495 504.96,201.162 506.5,203.5C 508.582,213.195 510.249,222.862 511.5,232.5C 511.5,247.833 511.5,263.167 511.5,278.5C 500.612,368.144 456.279,435.644 378.5,481C 368.602,486.619 358.268,491.119 347.5,494.5C 346.167,415.169 345.5,335.503 345.5,255.5C 345.5,175.497 346.167,95.8305 347.5,16.5 Z"/></g>
<g><path style="opacity:0.827" fill="#e56374" d="M 504.5,195.5 C 505.768,197.905 506.435,200.572 506.5,203.5C 504.96,201.162 504.294,198.495 504.5,195.5 Z"/></g>
</svg>
