<?xml version="1.0" standalone="no"?>
<!DOCTYPE svg PUBLIC "-//W3C//DTD SVG 20010904//EN"
 "http://www.w3.org/TR/2001/REC-SVG-20010904/DTD/svg10.dtd">
<svg version="1.0" xmlns="http://www.w3.org/2000/svg"
 width="500.000000pt" height="500.000000pt" viewBox="0 0 500.000000 500.000000"
 preserveAspectRatio="xMidYMid meet">

<g transform="translate(0.000000,500.000000) scale(0.100000,-0.100000)"
fill="#000000" stroke="none">
<path d="M1354 3385 c-168 -36 -303 -160 -355 -324 -29 -92 -29 -240 0 -332
52 -164 183 -284 353 -324 215 -51 441 31 550 199 112 173 111 415 -3 585
-111 167 -325 244 -545 196z m225 -171 c73 -21 143 -88 172 -163 30 -76 33
-221 5 -300 -24 -70 -92 -144 -154 -168 -70 -27 -193 -24 -254 6 -61 29 -122
99 -145 164 -24 71 -24 214 1 285 51 149 212 225 375 176z"/>
<path d="M2313 3382 c-28 -10 -70 -30 -92 -45 -142 -94 -162 -307 -39 -424 38
-37 88 -60 213 -98 140 -42 180 -96 141 -190 -19 -45 -66 -69 -136 -69 -60 -1
-100 13 -171 56 -74 45 -94 37 -144 -55 -18 -34 -18 -37 -1 -55 29 -32 129
-81 202 -98 182 -43 352 23 421 164 24 49 28 69 28 143 0 78 -3 90 -30 135
-38 61 -98 98 -231 143 -121 41 -158 63 -174 100 -26 64 21 133 99 146 53 9
92 0 169 -38 75 -37 84 -34 126 43 l29 54 -32 27 c-82 68 -272 99 -378 61z"/>
<path d="M630 3033 c0 -330 -2 -361 -19 -400 -29 -62 -55 -75 -151 -74 -78 1
-81 0 -91 -26 -5 -15 -9 -49 -7 -77 l3 -51 45 -8 c79 -14 195 -2 255 28 63 30
98 68 134 145 l26 55 3 383 3 382 -101 0 -100 0 0 -357z"/>
<path d="M2882 3043 c3 -335 4 -350 26 -405 44 -110 124 -186 236 -225 77 -27
242 -24 317 5 115 46 191 125 228 240 20 58 21 86 21 397 l0 335 -100 0 -99 0
-3 -337 c-3 -328 -4 -339 -25 -380 -30 -56 -79 -91 -144 -105 -97 -20 -184 21
-228 107 l-26 49 -3 333 -3 333 -100 0 -100 0 3 -347z"/>
<path d="M3910 2895 l0 -495 315 0 315 0 0 80 0 80 -215 0 -215 0 0 130 0 130
165 0 165 0 0 75 0 75 -162 2 -163 3 -3 128 -3 127 216 0 215 0 0 80 0 80
-315 0 -315 0 0 -495z"/>
<path d="M394 2263 c3 -10 64 -160 134 -333 l129 -315 42 0 42 0 135 329 c74
181 134 331 134 333 0 2 -17 3 -38 3 -25 0 -44 -6 -54 -17 -15 -19 -208 -500
-208 -521 0 -22 -18 -12 -24 14 -11 40 -186 476 -202 502 -11 17 -24 22 -55
22 -34 0 -39 -3 -35 -17z"/>
<path d="M1100 1945 l0 -335 205 0 205 0 0 35 0 35 -160 0 -160 0 0 115 0 115
130 0 130 0 0 35 0 35 -130 0 -130 0 0 115 0 115 160 0 160 0 0 35 0 35 -205
0 -205 0 0 -335z"/>
<path d="M1640 1945 l0 -335 40 0 40 0 2 255 3 254 185 -241 c102 -133 191
-247 198 -255 7 -7 27 -13 43 -13 l29 0 0 335 0 335 -40 0 -40 0 -2 -255 -3
-256 -140 183 c-252 328 -252 328 -285 328 l-30 0 0 -335z"/>
<path d="M2347 2273 c-4 -3 -7 -154 -7 -335 l0 -328 205 0 205 0 0 35 0 34
-157 3 -158 3 -3 113 -3 112 131 0 130 0 0 35 0 34 -127 3 -128 3 0 110 0 110
158 3 157 3 0 34 0 35 -198 0 c-109 0 -202 -3 -205 -7z"/>
<path d="M3060 2264 c-141 -51 -218 -178 -208 -345 10 -173 118 -292 283 -313
69 -9 174 7 240 38 l55 25 0 130 0 131 -101 0 -100 0 3 -32 c3 -33 4 -33 61
-36 l57 -3 0 -73 0 -74 -40 -16 c-53 -21 -178 -21 -228 0 -116 48 -171 202
-127 351 43 145 218 204 374 126 l53 -27 19 23 c11 13 18 29 16 34 -2 6 -28
24 -57 41 -50 28 -64 31 -155 33 -73 2 -112 -1 -145 -13z"/>
<path d="M3637 1963 c-69 -175 -129 -326 -133 -335 -5 -15 0 -18 34 -18 22 0
44 6 50 13 5 6 22 47 38 90 l29 77 153 -2 154 -3 32 -85 33 -85 47 -3 46 -3
-17 43 c-9 24 -69 174 -133 333 l-116 290 -45 3 -45 3 -127 -318z m234 56 c33
-84 59 -154 59 -155 0 -2 -56 -4 -124 -4 l-123 0 61 159 c33 87 63 157 65 155
2 -2 30 -72 62 -155z"/>
<path d="M4285 2264 c-67 -37 -105 -96 -105 -165 0 -88 48 -139 170 -179 143
-48 175 -89 135 -174 -21 -44 -63 -66 -124 -66 -50 0 -121 26 -136 50 -11 18
-42 11 -59 -14 -15 -24 -14 -26 15 -51 63 -52 152 -73 238 -54 101 21 169 114
159 218 -8 86 -43 114 -213 176 -27 10 -63 31 -79 47 -24 25 -28 34 -23 65 14
87 110 118 210 69 30 -14 57 -26 60 -26 4 0 13 13 22 30 l15 29 -47 28 c-40
23 -61 28 -128 31 -59 2 -88 -2 -110 -14z"/>
</g>
</svg>
